<svg xmlns="http://www.w3.org/2000/svg" width="109" height="109" viewBox="0 0 109 109" id="5b57"><g fill="none" stroke="#666" stroke-width="6" stroke-linecap="round" stroke-linejoin="round"><g><g><path d="M52.73,9.5c1.01,1.01,1.75,2.25,1.75,3.76c0,3.53-0.09,5.73-0.1,8.95" /><g><path d="M21.88,24c0,3.37-4.06,14.25-5.62,16.5" /><path d="M24.07,26.66c16.68-1.91,42.18-5.28,63-5.78c10.95-0.26,4.68,5.37,0.52,8.4" /></g></g><g p4:phon="хнР" xmlns:p4="http://kanjivg.tagaini.net"><path d="M34.91,36.19c2.09,1.06,4.35,1.5,6.87,1.26c4.73-0.45,19.99-2.86,26.18-4.24c3.17-0.71,4.92,0.67,2.1,3.7c-2.15,2.31-9.34,9.46-14.25,12.73" /><path d="M52.71,51.03c5.42,5.22,9.29,26.84,3.67,43.18c-2.57,7.47-8.5,2.78-10.58,0.81" /><path d="M14.38,63.51c3.88,1.24,8.65,0.84,12.38,0.47c15.18-1.5,43-4.92,59.75-5.41c3.45-0.1,7.13-0.23,10.37,1.15" /></g></g></g><g fill="none" stroke="#000" stroke-width="3" stroke-linecap="round" stroke-linejoin="round"><path d="M52.73,9.5c1.01,1.01,1.75,2.25,1.75,3.76c0,3.53-0.09,5.73-0.1,8.95" stroke-dasharray="13.213" stroke-dashoffset="13.213"><animate attributeName="stroke-dashoffset" values="13.213;13.213;0" dur="0.132s" fill="freeze" begin="0s;5b57.click" /></path><path d="M21.88,24c0,3.37-4.06,14.25-5.62,16.5" stroke-dasharray="17.528" stroke-dashoffset="17.528"><animate attributeName="stroke-dashoffset" values="17.528" fill="freeze" begin="5b57.click" /><animate attributeName="stroke-dashoffset" values="17.528;17.528;0" keyTimes="0;0.43;1" dur="0.307s" fill="freeze" begin="0s;5b57.click" /></path><path d="M24.07,26.66c16.68-1.91,42.18-5.28,63-5.78c10.95-0.26,4.68,5.37,0.52,8.4" stroke-dasharray="78.961" stroke-dashoffset="78.961"><animate attributeName="stroke-dashoffset" values="78.961" fill="freeze" begin="5b57.click" /><animate attributeName="stroke-dashoffset" values="78.961;78.961;0" keyTimes="0;0.341;1" dur="0.901s" fill="freeze" begin="0s;5b57.click" /></path><path d="M34.91,36.19c2.09,1.06,4.35,1.5,6.87,1.26c4.73-0.45,19.99-2.86,26.18-4.24c3.17-0.71,4.92,0.67,2.1,3.7c-2.15,2.31-9.34,9.46-14.25,12.73" stroke-dasharray="59.959" stroke-dashoffset="59.959"><animate attributeName="stroke-dashoffset" values="59.959" fill="freeze" begin="5b57.click" /><animate attributeName="stroke-dashoffset" values="59.959;59.959;0" keyTimes="0;0.6;1" dur="1.501s" fill="freeze" begin="0s;5b57.click" /></path><path d="M52.71,51.03c5.42,5.22,9.29,26.84,3.67,43.18c-2.57,7.47-8.5,2.78-10.58,0.81" stroke-dasharray="58.349" stroke-dashoffset="58.349"><animate attributeName="stroke-dashoffset" values="58.349" fill="freeze" begin="5b57.click" /><animate attributeName="stroke-dashoffset" values="58.349;58.349;0" keyTimes="0;0.72;1" dur="2.084s" fill="freeze" begin="0s;5b57.click" /></path><path d="M14.38,63.51c3.88,1.24,8.65,0.84,12.38,0.47c15.18-1.5,43-4.92,59.75-5.41c3.45-0.1,7.13-0.23,10.37,1.15" stroke-dasharray="83.002" stroke-dashoffset="83.002"><animate attributeName="stroke-dashoffset" values="83.002" fill="freeze" begin="5b57.click" /><animate attributeName="stroke-dashoffset" values="83.002;83.002;0" keyTimes="0;0.77;1" dur="2.708s" fill="freeze" begin="0s;5b57.click" /></path></g></svg>