<svg xmlns="http://www.w3.org/2000/svg" width="109" height="109" viewBox="0 0 109 109" id="6f22"><g fill="none" stroke="#666" stroke-width="6" stroke-linecap="round" stroke-linejoin="round"><g><g><path d="M20,19.5c3.62,1.47,8.62,5.38,10.25,8.34" /><path d="M15.25,44.12c4.24,1.43,10.94,5.9,12,8.12" /><path d="M15.41,89.2c1.46,0.43,2.88-0.03,3.59-1.24c2.75-4.7,5.5-10.45,8-16.45" /></g><g p4:phon="𦰩" xmlns:p4="http://kanjivg.tagaini.net"><g><path d="M36.07,23.3c2,0.54,5.08,0.53,7.07,0.27C55,21.98,71.25,20.32,83.19,19.6c3.32-0.2,5.57,0.23,7.24,0.5" /><path d="M49.35,13.24c1.28,0.76,1.96,1.77,2.17,2.86c1.24,6.52,1.74,10.35,2.13,12.65" /><path d="M71.38,9.75c0.62,1.12,1,2.52,0.63,4.18c-1.13,5.19-1.38,6.69-2.62,12.91" /></g><g><g><path d="M42,33.71c0.77,0.77,1.54,1.65,1.73,2.54c0.82,3.88,1.52,7.8,2.23,11.75c0.18,1.01,0.36,2.02,0.54,3.02" /><path d="M44.63,35.3c9.5-1.3,26.87-3.37,33.86-4.12c2.88-0.31,4.83-0.11,3.87,3.11c-0.97,3.28-1.83,6.85-3.21,11.14" /><path d="M47.7,49.58c5.06-0.4,19.5-1.97,29.31-3.03c1.43-0.15,2.77-0.3,3.96-0.43" /></g><g><path d="M43.84,59.47c1.39,0.45,3.94,0.58,5.33,0.45c6.04-0.55,21.02-2.17,27.94-2.69c2.31-0.17,3.71,0.21,4.87,0.44" /><g><path d="M37.34,72.25c1.62,0.37,4.58,0.45,6.2,0.37c8.01-0.38,27.71-2.99,41.25-3.49c2.69-0.1,4.31,0.18,5.66,0.36" /><path d="M61.6,34.8c0.48,0.95,0.91,2.34,0.91,4.18c0,44.02-7.39,48.27-27.77,57.52" /><path d="M61,72c8,5.75,18.25,15.12,25.74,19.39c2.42,1.38,4.26,2.24,5.89,2.74" /></g></g></g></g></g></g><g fill="none" stroke="#000" stroke-width="3" stroke-linecap="round" stroke-linejoin="round"><path d="M20,19.5c3.62,1.47,8.62,5.38,10.25,8.34" stroke-dasharray="13.397" stroke-dashoffset="13.397"><animate attributeName="stroke-dashoffset" values="13.397;13.397;0" dur="0.134s" fill="freeze" begin="0s;6f22.click" /></path><path d="M15.25,44.12c4.24,1.43,10.94,5.9,12,8.12" stroke-dasharray="14.679" stroke-dashoffset="14.679"><animate attributeName="stroke-dashoffset" values="14.679" fill="freeze" begin="6f22.click" /><animate attributeName="stroke-dashoffset" values="14.679;14.679;0" keyTimes="0;0.477;1" dur="0.281s" fill="freeze" begin="0s;6f22.click" /></path><path d="M15.41,89.2c1.46,0.43,2.88-0.03,3.59-1.24c2.75-4.7,5.5-10.45,8-16.45" stroke-dasharray="22.412" stroke-dashoffset="22.412"><animate attributeName="stroke-dashoffset" values="22.412" fill="freeze" begin="6f22.click" /><animate attributeName="stroke-dashoffset" values="22.412;22.412;0" keyTimes="0;0.556;1" dur="0.505s" fill="freeze" begin="0s;6f22.click" /></path><path d="M36.07,23.3c2,0.54,5.08,0.53,7.07,0.27C55,21.98,71.25,20.32,83.19,19.6c3.32-0.2,5.57,0.23,7.24,0.5" stroke-dasharray="54.642" stroke-dashoffset="54.642"><animate attributeName="stroke-dashoffset" values="54.642" fill="freeze" begin="6f22.click" /><animate attributeName="stroke-dashoffset" values="54.642;54.642;0" keyTimes="0;0.48;1" dur="1.051s" fill="freeze" begin="0s;6f22.click" /></path><path d="M49.35,13.24c1.28,0.76,1.96,1.77,2.17,2.86c1.24,6.52,1.74,10.35,2.13,12.65" stroke-dasharray="16.534" stroke-dashoffset="16.534"><animate attributeName="stroke-dashoffset" values="16.534" fill="freeze" begin="6f22.click" /><animate attributeName="stroke-dashoffset" values="16.534;16.534;0" keyTimes="0;0.864;1" dur="1.216s" fill="freeze" begin="0s;6f22.click" /></path><path d="M71.38,9.75c0.62,1.12,1,2.52,0.63,4.18c-1.13,5.19-1.38,6.69-2.62,12.91" stroke-dasharray="17.501" stroke-dashoffset="17.501"><animate attributeName="stroke-dashoffset" values="17.501" fill="freeze" begin="6f22.click" /><animate attributeName="stroke-dashoffset" values="17.501;17.501;0" keyTimes="0;0.874;1" dur="1.391s" fill="freeze" begin="0s;6f22.click" /></path><path d="M42,33.71c0.77,0.77,1.54,1.65,1.73,2.54c0.82,3.88,1.52,7.8,2.23,11.75c0.18,1.01,0.36,2.02,0.54,3.02" stroke-dasharray="18.142" stroke-dashoffset="18.142"><animate attributeName="stroke-dashoffset" values="18.142" fill="freeze" begin="6f22.click" /><animate attributeName="stroke-dashoffset" values="18.142;18.142;0" keyTimes="0;0.885;1" dur="1.572s" fill="freeze" begin="0s;6f22.click" /></path><path d="M44.63,35.3c9.5-1.3,26.87-3.37,33.86-4.12c2.88-0.31,4.83-0.11,3.87,3.11c-0.97,3.28-1.83,6.85-3.21,11.14" stroke-dasharray="52.307" stroke-dashoffset="52.307"><animate attributeName="stroke-dashoffset" values="52.307" fill="freeze" begin="6f22.click" /><animate attributeName="stroke-dashoffset" values="52.307;52.307;0" keyTimes="0;0.75;1" dur="2.095s" fill="freeze" begin="0s;6f22.click" /></path><path d="M47.7,49.58c5.06-0.4,19.5-1.97,29.31-3.03c1.43-0.15,2.77-0.3,3.96-0.43" stroke-dasharray="33.451" stroke-dashoffset="33.451"><animate attributeName="stroke-dashoffset" values="33.451" fill="freeze" begin="6f22.click" /><animate attributeName="stroke-dashoffset" values="33.451;33.451;0" keyTimes="0;0.862;1" dur="2.43s" fill="freeze" begin="0s;6f22.click" /></path><path d="M43.84,59.47c1.39,0.45,3.94,0.58,5.33,0.45c6.04-0.55,21.02-2.17,27.94-2.69c2.31-0.17,3.71,0.21,4.87,0.44" stroke-dasharray="38.356" stroke-dashoffset="38.356"><animate attributeName="stroke-dashoffset" values="38.356" fill="freeze" begin="6f22.click" /><animate attributeName="stroke-dashoffset" values="38.356;38.356;0" keyTimes="0;0.864;1" dur="2.814s" fill="freeze" begin="0s;6f22.click" /></path><path d="M37.34,72.25c1.62,0.37,4.58,0.45,6.2,0.37c8.01-0.38,27.71-2.99,41.25-3.49c2.69-0.1,4.31,0.18,5.66,0.36" stroke-dasharray="53.31" stroke-dashoffset="53.31"><animate attributeName="stroke-dashoffset" values="53.31" fill="freeze" begin="6f22.click" /><animate attributeName="stroke-dashoffset" values="53.31;53.31;0" keyTimes="0;0.841;1" dur="3.347s" fill="freeze" begin="0s;6f22.click" /></path><path d="M61.6,34.8c0.48,0.95,0.91,2.34,0.91,4.18c0,44.02-7.39,48.27-27.77,57.52" stroke-dasharray="74.149" stroke-dashoffset="74.149"><animate attributeName="stroke-dashoffset" values="74.149" fill="freeze" begin="6f22.click" /><animate attributeName="stroke-dashoffset" values="74.149;74.149;0" keyTimes="0;0.857;1" dur="3.905s" fill="freeze" begin="0s;6f22.click" /></path><path d="M61,72c8,5.75,18.25,15.12,25.74,19.39c2.42,1.38,4.26,2.24,5.89,2.74" stroke-dasharray="38.759" stroke-dashoffset="38.759"><animate attributeName="stroke-dashoffset" values="38.759" fill="freeze" begin="6f22.click" /><animate attributeName="stroke-dashoffset" values="38.759;38.759;0" keyTimes="0;0.91;1" dur="4.293s" fill="freeze" begin="0s;6f22.click" /></path></g></svg>